<svg xmlns="http://www.w3.org/2000/svg" width="48" height="48" viewBox="0 0 48 48"><g><g><path fill="#ee2912" d="M0 24C0 10.745 10.745 0 24 0s24 10.745 24 24-10.745 24-24 24S0 37.255 0 24z"/></g><g><path fill="#fff" d="M31.893 20.393l-1.158 1.158 2.119 2.128H25.32v-7.533l2.128 2.12 1.158-1.159L24.5 13l-4.107 4.107 1.158 1.158 2.128-2.119v7.533h-7.533l2.12-2.128-1.159-1.158L13 24.5l4.107 4.107 1.158-1.158-2.119-2.128h7.533v7.533l-2.128-2.12-1.158 1.159L24.5 36l4.107-4.107-1.158-1.158-2.128 2.119V25.32h7.533l-2.12 2.128 1.159 1.158L36 24.5z"/></g></g></svg>