<svg xmlns="http://www.w3.org/2000/svg" width="16" height="19" viewBox="0 0 16 19"><g><g><path fill="#fff" d="M8.006 0C2.844 0 .1 3.308.1 6.915c0 1.672.934 3.758 2.43 4.42.427.192.37-.043.738-1.447a.333.333 0 0 0-.08-.327C1.05 7.087 2.771 2 7.701 2c7.135 0 5.802 9.872 1.241 9.872-1.175 0-2.05-.923-1.774-2.064.336-1.36.993-2.822.993-3.802 0-2.47-3.68-2.104-3.68 1.169 0 1.011.358 1.694.358 1.694l-1.404 5.677c-.372 1.513.05 3.962.087 4.173.023.116.153.153.226.058.117-.153 1.549-2.195 1.95-3.671.146-.538.744-2.72.744-2.72.395.713 1.533 1.31 2.745 1.31 3.606 0 6.213-3.17 6.213-7.104C15.388 2.822 12.16 0 8.006 0z"/></g></g></svg>