<svg xmlns="http://www.w3.org/2000/svg" width="18" height="14" viewBox="0 0 18 14"><g><g><path fill="#fff" d="M17.413 1.618a7.191 7.191 0 0 1-1.988.545A3.43 3.43 0 0 0 16.943.257a6.893 6.893 0 0 1-2.187.835A3.448 3.448 0 0 0 8.789 3.45c0 .273.023.535.08.786A9.763 9.763 0 0 1 1.759.629a3.454 3.454 0 0 0 1.06 4.61 3.406 3.406 0 0 1-1.558-.425v.038a3.465 3.465 0 0 0 2.763 3.39c-.28.076-.586.113-.904.113a3.05 3.05 0 0 1-.653-.06A3.482 3.482 0 0 0 5.69 10.7a6.93 6.93 0 0 1-4.277 1.47c-.283 0-.554-.012-.825-.047a9.71 9.71 0 0 0 5.291 1.548c6.348 0 9.818-5.257 9.818-9.815 0-.152-.006-.3-.013-.446a6.881 6.881 0 0 0 1.729-1.79z"/></g></g></svg>