<svg xmlns="http://www.w3.org/2000/svg" width="116" height="25" viewBox="0 0 116 25"><g><g><g><path fill="#fff" d="M69.226 3.386c-.244-.789-1.004-1.219-2.05-1.219-.96 0-1.648.359-1.648 1.004 0 .516.473.889 1.204 1.046l1.419.287c1.677.344 3.798.86 3.798 3.039 0 2.178-2.193 3.411-4.357 3.411-2.68 0-4.4-1.319-4.788-3.57h2.437c.272 1.09 1.132 1.592 2.408 1.592.846 0 1.777-.272 1.777-1.132 0-.674-.788-1.004-1.935-1.247l-1.261-.258c-1.691-.344-3.225-1.161-3.225-3.025 0-2.121 2.279-3.11 4.314-3.11 2.021 0 3.985.888 4.33 3.182zM56.193 2.44v2.666h1.62c1.146 0 2.05-.258 2.05-1.348 0-1.089-.904-1.318-2.05-1.318zM57.74.376c2.695 0 4.716.66 4.716 3.382 0 2.738-2.021 3.412-4.716 3.412h-1.548v3.598h-2.451V.376zM47.449 10.954c-3.196 0-5.39-2.136-5.39-5.375 0-3.24 2.194-5.375 5.39-5.375 3.182 0 5.39 2.135 5.39 5.375s-2.208 5.375-5.39 5.375zm0-2.021c1.534 0 2.795-1.147 2.795-3.354 0-2.208-1.261-3.354-2.795-3.354s-2.795 1.146-2.795 3.354c0 2.207 1.261 3.354 2.795 3.354zM35.437.376c3.397 0 6.078 1.247 6.078 5.189 0 3.956-2.68 5.203-6.078 5.203h-3.425V.376zm.043 2.064h-1.017v6.264h1.017c1.792 0 3.44-.387 3.44-3.14 0-2.752-1.648-3.124-3.44-3.124z"/></g><g><path fill="#fff" d="M109.54 17.523h2.164c.86 0 1.333-.416 1.333-1.061s-.473-1.032-1.333-1.032h-2.164zm0 4.17h2.293c1.046 0 1.577-.444 1.577-1.175 0-.73-.53-1.175-1.577-1.175h-2.293zm-2.452-8.327h4.53c2.279 0 3.97.516 3.97 2.694 0 .96-.43 1.663-1.232 2.165.974.344 1.648 1.075 1.648 2.336 0 2.337-1.677 3.197-4.2 3.197h-4.716zm-7.152 6.55h2.68l-1.333-3.956zm.014-6.55h2.695l3.927 10.392h-2.666l-.63-1.85h-4.014l-.616 1.85h-2.609zm-8.6 8.227h3.196l1.344 2.165H88.9V13.366h2.451z"/></g><g><path fill="#fff" d="M81.535 21.593h3.644l1.344 2.165h-7.44V13.366h2.452zm-9.604-1.677h2.68L73.28 15.96zm.015-6.55h2.694l3.928 10.392h-2.666l-.631-1.85h-4.013l-.617 1.85h-2.609zm-8.285 2.15h-3.326v-2.15h9.13v2.15h-3.339v8.242h-2.465zm-3.97 8.242h-2.452V13.366h2.451zm-8.644-10.564c2.308 0 4.157 1.16 4.658 3.425h-2.408c-.23-.716-.946-1.404-2.279-1.404-1.505 0-2.68 1.118-2.68 3.31 0 2.194 1.075 3.398 2.723 3.398 1.133 0 2.308-.43 2.308-1.749v-.2h-2.508v-2.007h4.959v5.79h-2.326l.377-1.146c-.674.917-1.692 1.333-3.182 1.333-3.054 0-4.946-2.093-4.946-5.418 0-3.283 2.15-5.332 5.304-5.332zm-6.192 10.564h-2.451V13.366h2.45zm-9.418-10.392c3.397 0 6.078 1.247 6.078 5.189 0 3.956-2.68 5.203-6.078 5.203h-3.425V13.366zm.043 2.064h-1.017v6.264h1.017c1.792 0 3.44-.387 3.44-3.14 0-2.752-1.648-3.124-3.44-3.124z"/></g><g><path fill="#fff" d="M85.244 13.907v-.376h.165c.129 0 .207.071.207.19 0 .114-.078.186-.207.186zm.35.777h.377l-.286-.551a.447.447 0 0 0 .275-.416.475.475 0 0 0-.49-.466h-.567v1.433h.34v-.498h.105zm-1.228-.706c0-.587.444-1.046 1.014-1.046.57 0 1.014.459 1.014 1.046 0 .585-.444 1.043-1.014 1.043-.57 0-1.014-.458-1.014-1.043zm-.305 0c0 .728.588 1.326 1.319 1.326a1.33 1.33 0 0 0 1.326-1.326 1.33 1.33 0 0 0-1.326-1.329c-.731 0-1.319.598-1.319 1.33z"/></g><g><path fill="#fff" d="M27.666 4.615c.322-.322.386-.708 0-1.093l-3.28-3.28c-.322-.322-.707-.322-1.029 0l-8.04 8.04c-.965.964-1.865.964-2.702 0L4.575.241c-.321-.322-.707-.322-1.029 0l-3.28 3.28c-.386.385-.322.771 0 1.093l5.596 5.596c.386.386.707.514 1.286.514h13.636c.579 0 .9-.128 1.287-.514zm0 16.402c.386-.386.322-.772 0-1.094l-5.595-5.596c-.386-.386-.708-.514-1.287-.514H7.148c-.579 0-.9.128-1.286.514L.266 19.923c-.322.322-.386.708 0 1.094l3.28 3.28c.322.322.708.322 1.03 0l8.04-8.04c.836-.965 1.736-.965 2.7 0l8.04 8.04c.323.322.708.322 1.03 0z"/></g></g></g></svg>